<?xml version="1.0" encoding="utf-8"?>
<!-- Generator: Adobe Illustrator 23.0.0, SVG Export Plug-In . SVG Version: 6.00 Build 0)  -->
<svg version="1.1" id="图层_1" xmlns="http://www.w3.org/2000/svg" xmlns:xlink="http://www.w3.org/1999/xlink" x="0px" y="0px"
	 viewBox="0 0 24 24" style="enable-background:new 0 0 24 24;" xml:space="preserve">
<style type="text/css">
	.st0{fill:#EB5757;}
</style>
<g id="regular">
	<path class="st0" d="M5,3.3H2.5H1v2.4v4.6v2.4v7.9h1.5v-7.9h0.5l2.6,7.9h2.4l-2.7-7.9c1.5-0.2,2.7-1.5,2.7-3.1V6.5
		C8.1,4.7,6.7,3.3,5,3.3z M6.5,8.8c0,0.9-0.7,1.6-1.6,1.6H2.5V5.8h2.3c0.9,0,1.6,0.7,1.6,1.6V8.8z"/>
	<polygon class="st0" points="11.3,3.3 9.7,3.3 9.7,3.4 9.7,5.7 9.7,10.8 9.7,13.2 9.7,18.3 9.7,20.6 9.7,20.6 11.3,20.6 11.3,20.6 
		15.2,20.6 15.2,18.3 11.3,18.3 11.3,13.2 14.4,13.2 14.4,10.8 11.3,10.8 11.3,5.7 15.2,5.7 15.2,3.4 11.3,3.4 	"/>
	<path class="st0" d="M23,9V6.5c0-0.9-0.4-1.7-0.9-2.2c-0.6-0.6-1.4-0.9-2.2-0.9c-1.7,0-3.1,1.4-3.1,3.1v11c0,1.7,1.4,3.1,3.1,3.1
		c1.7,0,3.1-1.4,3.1-3.1v-4v-2.3h-3.1v2.3h1.6v3.1c0,0.9-0.7,1.6-1.6,1.6s-1.6-0.7-1.6-1.6V7.3c0-0.9,0.7-1.6,1.6-1.6
		c0.4,0,0.8,0.2,1.1,0.5c0.3,0.3,0.5,0.7,0.5,1.1V9H23z"/>
</g>
</svg>
