<?xml version="1.0" encoding="utf-8"?>
<!-- Generator: Adobe Illustrator 23.0.0, SVG Export Plug-In . SVG Version: 6.00 Build 0)  -->
<svg version="1.1" id="图层_1" xmlns="http://www.w3.org/2000/svg" xmlns:xlink="http://www.w3.org/1999/xlink" x="0px" y="0px"
	 viewBox="0 0 24 24" style="enable-background:new 0 0 24 24;" xml:space="preserve">
<style type="text/css">
	.st0{fill:#FFFFFF;}
</style>
<g id="invisible">
	<path class="st0" d="M20.5,7.8L19.2,9c0.9,0.8,1.6,1.8,2.1,3c-1.6,3.4-4.9,5.7-8.7,5.9l0,0c3-0.3,5.3-2.8,5.3-5.9
		c0-0.5-0.1-1-0.2-1.5L15.2,13c-0.3,1.1-1.2,1.9-2.2,2.2l-2.5,2.5c0.3,0.1,0.6,0.1,0.9,0.2l0,0l0,0l0,0c-0.3,0-0.6-0.1-0.9-0.1
		L9,19.2c1,0.2,2,0.4,3,0.4l0,0l0,0l0,0c4.7,0,8.9-2.7,11-6.8c0-0.6,0-1,0-1.7C22.3,9.8,21.5,8.7,20.5,7.8z"/>
	<path class="st0" d="M19.6,2.7l-2.7,2.7c-1.5-0.7-3.2-1-4.9-1l0,0l0,0C7.4,4.4,3.1,7,1,11.1c0,0.6,0,1.1,0,1.7
		c0.9,1.9,2.3,3.4,3.9,4.6l-2.3,2.3l1.7,1.7l17-17L19.6,2.7z M7.1,15.3L7.1,15.3L7.1,15.3l-0.9,0.9c-1.5-1-2.7-2.4-3.5-4.1
		c1.6-3.4,4.9-5.7,8.7-5.9c0,0,0.1,0,0.2,0c-0.1,0-0.1,0-0.2,0l0,0c-3,0.3-5.3,2.8-5.3,5.9C6.1,13.2,6.4,14.3,7.1,15.3z M12,10.3
		l-3.1,3.1C8.7,13,8.6,12.5,8.6,12c0-1.9,1.5-3.4,3.4-3.4l0,0c0.5,0,1,0.1,1.4,0.3L12,10.3z M15.3,7.1c-0.8-0.5-1.7-0.8-2.6-0.9
		c-0.1,0-0.1,0-0.2,0c0.1,0,0.1,0,0.2,0c1,0.1,2,0.3,3,0.6L15.3,7.1z"/>
</g>
</svg>
