<?xml version="1.0" encoding="utf-8"?>
<!-- Generator: Adobe Illustrator 23.0.0, SVG Export Plug-In . SVG Version: 6.00 Build 0)  -->
<svg version="1.1" id="图层_1" xmlns="http://www.w3.org/2000/svg" xmlns:xlink="http://www.w3.org/1999/xlink" x="0px" y="0px"
	 viewBox="0 0 24 24" style="enable-background:new 0 0 24 24;" xml:space="preserve">
<style type="text/css">
	.st0{fill:#FFFFFF;}
</style>
<g>
	<path class="st0" d="M5.7,1.8L4.1,2.6L2.6,8.1l0.8,1.6H16l0.8-1.6L5.7,1.8z M4.5,8.1l1.2-4.5l7.9,4.5H4.5z"/>
	<g>
		<path class="st0" d="M23,12c0-3.1-1.9-5.8-4.8-7.3L17.4,6c2.4,1.3,4,3.5,4,6c0,1.7-0.7,3.3-2,4.5l0.4-2.1l-1.5-0.3l-0.5,3.1
			l-0.1,0.7l-0.2,0.9l1.3,0.2l0,0H19l3.1,0.5l0.3-1.5l-1.9-0.3C22,16.2,23,14.2,23,12z"/>
		<rect x="1" y="11.2" class="st0" width="17.3" height="1.6"/>
		<path class="st0" d="M3.4,14.4L2.6,16l11,6.3l1.6-0.8l1.6-5.5L16,14.4H3.4z M13.6,20.4l-7.9-4.5h9.1L13.6,20.4z"/>
	</g>
</g>
</svg>
