<?xml version="1.0" encoding="utf-8"?>
<!-- Generator: Adobe Illustrator 23.0.0, SVG Export Plug-In . SVG Version: 6.00 Build 0)  -->
<svg version="1.1" id="图层_1" xmlns="http://www.w3.org/2000/svg" xmlns:xlink="http://www.w3.org/1999/xlink" x="0px" y="0px"
	 viewBox="0 0 24 24" style="enable-background:new 0 0 24 24;" xml:space="preserve">
<style type="text/css">
	.st0{fill:#F2C94C;}
	.st1{fill:#F2994A;}
</style>
<g id="inverse">
	<polygon class="st0" points="12,14.1 5.8,17.5 4.6,17.5 4.8,16.3 10.4,13.2 	"/>
	<path class="st1" d="M5.8,8.9L4.2,9.6l-1.6,7.9l0.8,1.6h17.3l0.8-1.6L5.8,8.9z M4.6,17.5l1.2-6.8l12.6,6.8H4.6z"/>
	<polygon class="st0" points="18.7,9 19.9,9.6 21.3,16.5 19.1,15.4 18.3,10.7 14.4,12.8 12.8,11.9 18.3,8.9 	"/>
	<path class="st1" d="M12,1.8c-2.2,0-4.2,1-5.7,2.5l0,0L6,2.4L4.5,2.7l0.8,4.6l4.6-0.8L9.6,5L7.5,5.3c1.2-1.2,2.8-2,4.5-2
		c2.5,0,4.7,1.6,6,4l1.4-0.8C17.8,3.7,15.1,1.8,12,1.8z"/>
	<polygon class="st1" points="23,20.7 23,22.2 18.2,22.2 5.1,22.2 3.1,22.2 1,22.2 1,20.7 3.1,20.7 5.1,20.7 17,20.7 	"/>
</g>
</svg>
