<?xml version="1.0" encoding="utf-8"?>
<!-- Generator: Adobe Illustrator 23.0.0, SVG Export Plug-In . SVG Version: 6.00 Build 0)  -->
<svg version="1.1" id="图层_1" xmlns="http://www.w3.org/2000/svg" xmlns:xlink="http://www.w3.org/1999/xlink" x="0px" y="0px"
	 viewBox="0 0 24 24" style="enable-background:new 0 0 24 24;" xml:space="preserve">
<style type="text/css">
	.st0{fill:#EB5757;}
</style>
<path class="st0" d="M5,3.3H2.5H1v2.4v4.6v2.4v7.9h1.5v-7.9H3l2.6,7.9H8l-2.7-7.9C6.8,12.5,8,11.2,8,9.6V6.5C8.1,4.7,6.7,3.3,5,3.3z
	 M4.9,10.4H2.5V5.8h2.3c0.9,0,1.6,0.7,1.6,1.6v1.4C6.4,9.9,5.5,10.4,4.9,10.4z"/>
<path class="st0" d="M19.9,3.3h-2.5h-1.5v2.4v4.6v2.4v7.9h1.5v-7.9h2.8c1.5-0.2,2.7-1.5,2.7-3.1V6.5C23,4.7,21.6,3.3,19.9,3.3z
	 M21.3,8.8c0,1.1-0.9,1.6-1.5,1.6h-2.4V5.8h2.3c0.9,0,1.6,0.7,1.6,1.6V8.8z"/>
<polygon class="st0" points="14.8,5.7 14.8,3.4 9.3,3.4 9.3,20.6 14.8,20.6 14.8,18.3 10.9,18.3 10.9,13.2 13.9,13.2 13.9,10.8 
	10.9,10.8 10.9,5.7 "/>
</svg>
