<?xml version="1.0" encoding="utf-8"?>
<!-- Generator: Adobe Illustrator 23.0.0, SVG Export Plug-In . SVG Version: 6.00 Build 0)  -->
<svg version="1.1" id="图层_1" xmlns="http://www.w3.org/2000/svg" xmlns:xlink="http://www.w3.org/1999/xlink" x="0px" y="0px"
	 viewBox="0 0 24 24" style="enable-background:new 0 0 24 24;" xml:space="preserve">
<style type="text/css">
	.st0{fill:#56CCF2;}
	.st1{fill:#2F80ED;}
</style>
<g id="flip">
	<path class="st0" d="M15.1,1.8h-11L2.6,3.4l6.3,6.3h1.6l6.3-6.3L15.1,1.8z M9.6,8.1L4.9,3.4h9.4L9.6,8.1z"/>
	<g>
		<path class="st1" d="M23,12c0-3.1-1.9-5.8-4.8-7.3L17.4,6c2.4,1.3,4,3.4,4,6c0,1.7-0.7,3.3-2,4.5l0.4-2.1l-1.5-0.3l-0.8,4.6
			l4.6,0.8l0.3-1.5l-1.9-0.3C22,16.2,23,14.2,23,12z"/>
		<path class="st1" d="M4.2,12.8h9.4h4.7v-1.6h-3.8H4.2H2.6c0,0.1,0,0.3,0,0.4c0-0.1,0-0.3,0-0.4H1v1.6h1.6H4.2z"/>
		<path class="st1" d="M10.4,14.4H8.9l-6.3,6.3l1.6,1.6h11l1.6-1.6L10.4,14.4z M4.9,20.6l4.7-4.7l4.6,4.6l0.1,0.1L4.9,20.6z"/>
	</g>
</g>
</svg>
