<?xml version="1.0" encoding="utf-8"?>
<!-- Generator: Adobe Illustrator 23.0.0, SVG Export Plug-In . SVG Version: 6.00 Build 0)  -->
<svg version="1.1" id="图层_1" xmlns="http://www.w3.org/2000/svg" xmlns:xlink="http://www.w3.org/1999/xlink" x="0px" y="0px"
	 viewBox="0 0 24 24" style="enable-background:new 0 0 24 24;" xml:space="preserve">
<style type="text/css">
	.st0{fill:#4DA2FF;}
</style>
<path class="st0" d="M12,1C5.9,1,1,5.9,1,12s4.9,11,11,11s11-4.9,11-11S18.1,1,12,1z M12,20.5c-4.7,0-8.5-3.8-8.5-8.5
	S7.3,3.5,12,3.5s8.5,3.8,8.5,8.5S16.7,20.5,12,20.5z"/>
<g>
	<path class="st0" d="M12.9,16.3l-2,0l0-1.2c0-1.3,0.6-2.6,1.5-3.5l1-1c0.4-0.4,0.7-1,0.7-1.6c0-1.2-0.9-2.1-2.1-2.1
		c-1.2,0-2.1,0.9-2.1,2.1v0.4h-2V9c0-2.3,1.8-4.1,4.1-4.1s4.1,1.8,4.1,4.1c0,1.1-0.4,2.2-1.3,3l-1,1c-0.6,0.6-0.9,1.3-0.9,2.1
		L12.9,16.3z"/>
</g>
<rect x="11" y="17.2" class="st0" width="2.1" height="2.1"/>
</svg>
