<?xml version="1.0" encoding="utf-8"?>
<!-- Generator: Adobe Illustrator 23.0.0, SVG Export Plug-In . SVG Version: 6.00 Build 0)  -->
<svg version="1.1" id="图层_1" xmlns="http://www.w3.org/2000/svg" xmlns:xlink="http://www.w3.org/1999/xlink" x="0px" y="0px"
	 viewBox="0 0 24 24" style="enable-background:new 0 0 24 24;" xml:space="preserve">
<style type="text/css">
	.st0{fill:#4DA2FF;}
	.st1{fill:#FFFFFF;}
</style>
<circle class="st0" cx="12" cy="12" r="11"/>
<g>
	<path class="st1" d="M12.9,16.3h-2v-1.2c0-1.3,0.6-2.6,1.5-3.5l1-1c0.4-0.4,0.7-1,0.7-1.6c0-1.2-0.9-2.1-2.1-2.1S9.9,7.8,9.9,9v0.4
		h-2V9c0-2.3,1.8-4.1,4.1-4.1s4.1,1.8,4.1,4.1c0,1.1-0.4,2.2-1.3,3l-1,1c-0.6,0.6-0.9,1.3-0.9,2.1L12.9,16.3z"/>
</g>
<rect x="11" y="17.2" class="st1" width="2.1" height="2.1"/>
</svg>
