<?xml version="1.0" encoding="utf-8"?>
<!-- Generator: Adobe Illustrator 23.0.0, SVG Export Plug-In . SVG Version: 6.00 Build 0)  -->
<svg version="1.1" id="图层_1" xmlns="http://www.w3.org/2000/svg" xmlns:xlink="http://www.w3.org/1999/xlink" x="0px" y="0px"
	 viewBox="0 0 1024 1024" style="enable-background:new 0 0 1024 1024;" xml:space="preserve">
<path d="M161.7,338c57.4-57.4,133.8-89,215-89h323V123.4c0-7.1,11.6-10.7,18.3-5.6l230.3,172.6c4.1,3.1,4.2,8.1,0,11.3L718,476.1
	c-6.7,5.1-18.4,1.5-18.4-5.6V345h-323c-114.7,0-208,93.3-208,208s93.3,208,208,208h130c26.5,0,48,21.5,48,48s-21.5,48-48,48h-130
	c-81.2,0-157.5-31.6-215-89s-89-133.8-89-215S104.2,395.4,161.7,338z"/>
</svg>
