<?xml version="1.0" encoding="utf-8"?>
<!-- Generator: Adobe Illustrator 23.0.0, SVG Export Plug-In . SVG Version: 6.00 Build 0)  -->
<svg version="1.1" xmlns="http://www.w3.org/2000/svg" xmlns:xlink="http://www.w3.org/1999/xlink" x="0px" y="0px"
	 viewBox="0 0 1024 1024" style="enable-background:new 0 0 1024 1024;" xml:space="preserve">
<style type="text/css">
	.st0{display:none;}
	.st1{display:inline;fill:#27AE60;}
	.st2{display:inline;fill:#BB6BD9;}
	.st3{display:inline;}
	.st4{fill:#9B51E0;}
	.st5{fill:#F2994A;}
	.st6{fill:#F2C94C;}
	.st7{fill:#56CCF2;}
	.st8{fill:#2F80ED;}
	.st9{fill:none;stroke:#FF0000;stroke-miterlimit:10;}
	.st10{fill:#BDBDBD;}
</style>
<g id="参考线">
</g>
<g id="图层_2">
	<g id="passive" class="st0">
		<path class="st1" d="M480,64C250.25,64,64,250.25,64,480s186.25,416,416,416s416-186.25,416-416S709.75,64,480,64z M480,800
			c-176.73,0-320-143.27-320-320s143.27-320,320-320s320,143.27,320,320S656.73,800,480,800z"/>
		<rect x="288" y="432" class="st1" width="384" height="96"/>
	</g>
	<g class="st0">
		<path class="st2" d="M256,64l-64,32l-64,224l32,64h512l32-64L256,64z M206,320l50-184l320,184H206z"/>
		<g class="st3">
			<path class="st4" d="M960.5,479.5c0-125.63-77.99-235.68-195.17-297.81l-31.77,55.42c97.92,51.06,162.94,140.55,162.94,242.64
				c0,69.97-30.44,134.11-81.07,184.04l15.23-86.39l-63.03-11.11L745.4,692.34l-4.72,26.78l-6.39,36.25l53.81,9.49h0.01l9.21,1.62
				l126.05,22.23l11.11-63.03l-77.63-13.69C921.37,649.98,960.5,568.61,960.5,479.5z"/>
			<rect x="64" y="448" class="st4" width="704" height="64"/>
			<path class="st4" d="M160,576l-32,64l448,256l64-32l64-224l-32-64H160z M576,824L256,640h370L576,824z"/>
		</g>
	</g>
	<g id="inverse" class="st0">
		<g class="st3">
			<polygon class="st5" points="896,704 864,767.5 512,767.75 160,767.5 128,704 216.39,655.38 208,704 256,704 768,704 816,704 
				807.61,655.38 			"/>
			<path class="st5" d="M810.06,258.92l-55.42,31.77C703.58,192.77,614.09,127.75,512,127.75c-69.97,0-134.11,30.44-184.04,81.07
				l-39.66,7l-8.54-48.42c62.01-64.52,143.38-103.65,232.49-103.65C637.88,63.75,747.93,141.74,810.06,258.92z"/>
			<path class="st5" d="M279.76,167.4l8.54,48.42l-54.64,9.63C247.43,204.4,262.88,184.96,279.76,167.4z"/>
			<polygon class="st5" points="578.06,529.13 512,565 445.94,529.13 512,492.8 			"/>
			<polygon class="st6" points="512,565 256,704 208,704 216.39,655.38 445.94,529.13 			"/>
			<polygon class="st5" points="241.02,359.49 256,352 512,492.8 445.94,529.13 256,426 216.39,655.38 128,704 192,384 			"/>
			<path class="st5" d="M225.27,226.93l8.39-1.48c-2.31,3.52-4.56,7.08-6.77,10.69L225.27,226.93z"/>
			<path class="st5" d="M414.35,193.59l11.11,63.03l-126.05,22.23l-5.23-29.67c10.35-14.55,21.65-28.05,33.78-40.36L414.35,193.59z"
				/>
			<path class="st5" d="M266.07,89.77l13.69,77.63c-16.88,17.56-32.33,37-46.1,58.05l-8.39,1.48l-22.23-126.05L266.07,89.77z"/>
			<polygon class="st5" points="807.61,655.38 816,704 768,704 512,565 578.06,529.13 			"/>
			<polygon class="st6" points="782.32,359.16 832,384 888.02,664.09 800.93,616.75 768,426 608.94,512.36 542.3,476.13 768,352 			
				"/>
			<path class="st5" d="M294.18,249.18l5.23,29.67l-26.78,4.72C279.24,271.56,286.44,260.08,294.18,249.18z"/>
			<path class="st5" d="M288.3,215.82l39.66-7c-12.13,12.31-23.43,25.81-33.78,40.36L288.3,215.82z"/>
			<path class="st5" d="M288.3,215.82l5.88,33.36c-7.74,10.9-14.94,22.38-21.55,34.39l-36.25,6.39l-9.49-53.81v-0.01
				c2.21-3.61,4.46-7.17,6.77-10.69L288.3,215.82z"/>
			<polygon class="st5" points="960,832.5 960,896.5 762.43,896.5 230.64,896.5 148.63,896.5 64.5,896.5 64.5,832.5 148.78,832.5 
				230.74,832.5 715.77,832.5 			"/>
		</g>
		<g class="st3">
		</g>
	</g>
	<g id="flip" class="st0">
		<g class="st3">
			<path class="st7" d="M631.14,200.86L448,384h-64l-98.98-98.98c16.78-14.97,35.48-28.46,55.77-40.23L416,320l128-128
				C574.07,192,603.26,195.08,631.14,200.86z"/>
			<path class="st7" d="M544,192l60.33-60.33c27.42,3.35,53.97,8.96,79.39,16.61l-52.58,52.58C603.26,195.08,574.07,192,544,192z"/>
			<path class="st8" d="M896.5,479.75c0-102.09-65.02-191.58-162.94-242.64l31.77-55.42C882.51,243.82,960.5,353.87,960.5,479.5
				c0,89.11-39.13,170.48-103.65,232.49l-48.42-8.54l7-39.66C866.06,613.86,896.5,549.72,896.5,479.75z"/>
			<path class="st7" d="M294.35,198.35l46.44,46.44c-20.29,11.77-38.99,25.26-55.77,40.23l-45.18-45.18
				C256.52,224.69,274.76,210.8,294.35,198.35z"/>
			<path class="st8" d="M194.61,448h418.07L576,512H194.69c-1.45-10.59-2.19-21.35-2.19-32.25
				C192.5,469.02,193.21,458.42,194.61,448z"/>
			<path class="st8" d="M194.61,448c-1.4,10.42-2.11,21.02-2.11,31.75c0,10.9,0.74,21.66,2.19,32.25h-64.43
				c-1.17-10.7-1.76-21.54-1.76-32.5c0-10.62,0.55-21.12,1.64-31.5H194.61z"/>
			<path class="st8" d="M64,448h66.14c-1.09,10.38-1.64,20.88-1.64,31.5c0,10.96,0.59,21.8,1.76,32.5H64V448z"/>
			<path class="st7" d="M224,128l70.35,70.35c-19.59,12.45-37.83,26.34-54.51,41.49L128,128l64-64h448l64,64l-20.28,20.28
				c-25.42-7.65-51.97-13.26-79.39-16.61L608,128h-64H224z"/>
			<path class="st8" d="M798.8,758.09c-3.52,2.31-7.08,4.56-10.69,6.77h-0.01l-53.81-9.49l6.39-36.25
				c12.01-6.61,23.49-13.81,34.39-21.55l33.36,5.88L798.8,758.09z"/>
			<path class="st8" d="M808.43,703.45l48.42,8.54c-17.56,16.88-37,32.33-58.05,46.1L808.43,703.45z"/>
			<path class="st8" d="M815.43,663.79l-7,39.66l-33.36-5.88C789.62,687.22,803.12,675.92,815.43,663.79z"/>
			<path class="st8" d="M631.43,759.14l52.03,52.24c-25.33,7.6-51.78,13.17-79.09,16.49L544.5,768
				C574.5,768,603.63,764.93,631.43,759.14z"/>
			<path class="st8" d="M934.48,725.68l-11.11,63.03l-126.05-22.23l1.48-8.39c21.05-13.77,40.49-29.22,58.05-46.1L934.48,725.68z"/>
			<path class="st8" d="M745.4,692.34l29.67,5.23c-10.9,7.74-22.38,14.94-34.39,21.55L745.4,692.34z"/>
			<path class="st8" d="M340.07,714.43l-46.1,46.1c-19.02-12.15-36.76-25.66-53.04-40.36l45.14-44.71
				C302.38,689.9,320.48,702.97,340.07,714.43z"/>
			<path class="st8" d="M830.66,577.4l-15.23,86.39c-12.31,12.13-25.81,23.43-40.36,33.78l-29.67-5.23l22.23-126.05L830.66,577.4z"
				/>
			<path class="st8" d="M798.8,758.09l-1.48,8.39l-9.21-1.62C791.72,762.65,795.28,760.4,798.8,758.09z"/>
			<path class="st8" d="M449,576l182.43,183.14c-27.8,5.79-56.93,8.86-86.93,8.86l-129-129l-75.43,75.43
				c-19.59-11.46-37.69-24.53-54-38.97L386.5,576H449z"/>
			<polygon class="st8" points="768,448 768,512 576,512 612.68,448 			"/>
			<path d="M534.75,831.4l17.94,0.03c-2.72,0.05-5.45,0.07-8.19,0.07C541.24,831.5,537.99,831.47,534.75,831.4z"/>
			<path class="st8" d="M683.46,811.38L704,832l-64,64H192l-64-64l112.93-111.83c16.28,14.7,34.02,28.21,53.04,40.36L223.5,831
				l311.25,0.4c3.24,0.07,6.49,0.1,9.75,0.1c2.74,0,5.47-0.02,8.19-0.07L608,831.5l-3.63-3.63
				C631.68,824.55,658.13,818.98,683.46,811.38z"/>
		</g>
		<g class="st3">
			<path class="st9" d="M788.1,764.86c-31.79,19.47-66.97,35.23-104.64,46.52c-25.33,7.6-51.78,13.17-79.09,16.49
				c-16.92,2.07-34.17,3.28-51.68,3.56c-2.72,0.05-5.45,0.07-8.19,0.07c-3.26,0-6.51-0.03-9.75-0.1
				c-90.31-1.75-173.51-27.86-240.78-70.87c-19.02-12.15-36.76-25.66-53.04-40.36c-61.52-55.53-102-127.96-110.67-208.17
				c-1.17-10.7-1.76-21.54-1.76-32.5c0-10.62,0.55-21.12,1.64-31.5c8.39-80.21,48.52-152.61,109.7-208.16
				c16.68-15.15,34.92-29.04,54.51-41.49C363.81,154.16,450.24,128,544,128c20.49,0,40.63,1.25,60.33,3.67
				c27.42,3.35,53.97,8.96,79.39,16.61c28.79,8.64,56.13,19.89,81.61,33.41C882.51,243.82,960.5,353.87,960.5,479.5
				c0,89.11-39.13,170.48-103.65,232.49c-17.56,16.88-37,32.33-58.05,46.1c-3.52,2.31-7.08,4.56-10.69,6.77"/>
			<path class="st9" d="M733.56,237.11c97.92,51.06,162.94,140.55,162.94,242.64c0,69.97-30.44,134.11-81.07,184.04
				c-12.31,12.13-25.81,23.43-40.36,33.78c-10.9,7.74-22.38,14.94-34.39,21.55c-32.9,18.12-69.74,31.81-109.25,40.02
				c-27.8,5.79-56.93,8.86-86.93,8.86c-76.23,0-146.8-19.84-204.43-53.57c-19.59-11.46-37.69-24.53-54-38.97
				c-49.7-43.98-82.86-100.68-91.38-163.46c-1.45-10.59-2.19-21.35-2.19-32.25c0-10.73,0.71-21.33,2.11-31.75
				c8.35-62.61,41.14-119.11,90.41-162.98c16.78-14.97,35.48-28.46,55.77-40.23C398.13,211.53,468.23,192,544,192
				c30.07,0,59.26,3.08,87.14,8.86C667.92,208.5,702.4,220.86,733.56,237.11z"/>
			<polygon class="st9" points="612.68,448 768,448 768,512 576,512 194.69,512 130.26,512 64,512 64,448 130.14,448 194.61,448 			
				"/>
			<polygon class="st9" points="239.84,239.84 128,128 192,64 640,64 704,128 683.72,148.28 631.14,200.86 448,384 384,384 
				285.02,285.02 			"/>
			<polygon class="st9" points="294.35,198.35 224,128 544,128 608,128 604.33,131.67 544,192 416,320 340.79,244.79 			"/>
			<polygon class="st9" points="683.46,811.38 704,832 640,896 192,896 128,832 240.93,720.17 286.07,675.46 386.5,576 449,576 
				631.43,759.14 			"/>
			<polygon class="st9" points="604.37,827.87 608,831.5 552.69,831.43 534.75,831.4 223.5,831 293.97,760.53 340.07,714.43 
				415.5,639 544.5,768 			"/>
			<polyline class="st9" points="745.4,692.34 767.63,566.29 830.66,577.4 815.43,663.79 808.43,703.45 798.8,758.09 797.32,766.48 
							"/>
			<polygon class="st9" points="788.1,764.86 734.29,755.37 740.68,719.12 745.4,692.34 775.07,697.57 808.43,703.45 856.85,711.99 
				934.48,725.68 923.37,788.71 797.32,766.48 788.11,764.86 			"/>
			<polyline class="st9" points="576,512 612.68,448 733.56,237.11 765.33,181.69 832.5,64.5 			"/>
		</g>
	</g>
	<g id="invisible" class="st0">
		<g class="st3">
			<path class="st10" d="M356.86,603.14l-11.99,11.99c-29.83-11.1-58.13-25.81-84.27-43.73l32.26-32.26
				C309.62,564.57,331.43,586.38,356.86,603.14z"/>
			<path class="st10" d="M479.93,639.5c7.83,0,15.62-0.23,23.37-0.7c-7.66,0.79-15.43,1.2-23.3,1.2c-0.02,0-0.05,0-0.07,0V639.5z"/>
			<path class="st10" d="M479.89,576.11l0.04,63.39c-0.14,0-0.29,0-0.43,0c-7.65-0.01-15.26-0.25-22.83-0.71
				c-11.42-1.17-22.58-3.21-33.42-6.04L479.89,576.11z"/>
			<path class="st10" d="M479.93,640l0.05,63.5c-0.16,0-0.32,0-0.48,0c-38.57-0.04-76.44-4.9-112.89-14.11l54.41-54.41
				c11.76,1.81,23.65,3.09,35.65,3.81C464.31,639.59,472.07,640,479.93,640z"/>
			<path class="st10" d="M128.47,416.01c29.95,63.85,76.07,116.97,132.13,155.39l-47.49,47.49C150.77,575.06,99,515.81,64,445
				c0-21.33,0-42.67,0-64c80.58-154.78,241.07-252.31,415.5-252.5c0.02,0,0.05,0,0.07,0l0.05,63.5c-7.75,0.01-15.41,0.42-22.95,1.21
				C315.57,201.71,188.98,286.97,128.47,416.01z"/>
			<path class="st10" d="M344.87,615.13l-49.81,49.81c-28.82-12.56-56.28-27.99-81.95-46.05l47.49-47.49
				C286.74,589.32,315.04,604.03,344.87,615.13z"/>
			<path class="st10" d="M831.53,416.01c-19.93-42.51-47.03-80.26-79.46-112.08l48.57-48.57C838.73,291.02,871.16,333.29,896,381
				c0,24.33,0,39.67,0,64c-78.13,158.07-239.8,258.51-416.02,258.5l-0.05-63.5c0.02,0,0.05,0,0.07,0c7.87,0,15.64-0.41,23.3-1.2
				C644.38,630.29,771.01,545.07,831.53,416.01z"/>
			<path class="st10" d="M696.75,359.25c4.73,18.12,7.25,37.14,7.25,56.75c0,115.84-87.94,211.15-200.7,222.8
				c-7.75,0.47-15.54,0.7-23.37,0.7l-0.04-63.39l37.74-37.74c40.43-12.41,72.33-44.31,84.74-84.74L696.75,359.25z"/>
			<path class="st10" d="M479.93,639.5v0.5c-7.86,0-15.62-0.41-23.26-1.21c7.57,0.46,15.18,0.7,22.83,0.71
				C479.64,639.5,479.79,639.5,479.93,639.5z"/>
			<path class="st10" d="M295.06,664.94L192,768l-64-64l85.11-85.11C238.78,636.95,266.24,652.38,295.06,664.94z"/>
			<path class="st10" d="M667.14,292.86l-70.46,70.46c-12.81-28.35-35.65-51.19-64-64l70.46-70.46
				C628.57,245.62,650.38,267.43,667.14,292.86z"/>
			<path class="st10" d="M596.68,363.32L479.82,480.18l-0.09-127.91l52.95-52.95C561.03,312.13,583.87,334.97,596.68,363.32z"/>
			<path class="st10" d="M292.86,539.14l70.46-70.46c12.81,28.35,35.65,51.19,64,64l-70.46,70.46
				C331.43,586.38,309.62,564.57,292.86,539.14z"/>
			<path class="st10" d="M363.32,468.68l-70.46,70.46C269.56,503.81,256,461.49,256,416c0-115.83,87.92-211.13,200.67-222.79
				c7.57-0.46,15.18-0.7,22.83-0.71c0.04,0,0.08,0,0.12,0l0.06,95.5C409.14,288.17,352,345.42,352,416
				C352,434.78,356.05,452.61,363.32,468.68z"/>
			<path class="st10" d="M603.14,228.86l-70.46,70.46C516.61,292.05,498.78,288,480,288c-0.11,0-0.21,0-0.32,0l-0.06-95.5
				c7.93-0.01,15.83,0.23,23.68,0.7C539.92,196.98,573.92,209.59,603.14,228.86z"/>
			<path class="st10" d="M479.73,352.27l0.09,127.91l-52.5,52.5c-28.35-12.81-51.19-35.65-64-64L479.73,352.27z"/>
			<path class="st10" d="M699.4,260.6l-32.26,32.26c-16.76-25.43-38.57-47.24-64-64l12-12C644.96,227.97,673.26,242.69,699.4,260.6z
				"/>
			<path class="st10" d="M665.25,166.75l-50.11,50.11c-35.48-13.21-73.11-21.32-111.84-23.66c-7.66-0.79-15.43-1.2-23.3-1.2
				c-0.13,0-0.25,0-0.38,0l-0.05-63.5C544.51,128.44,607.54,141.88,665.25,166.75z"/>
			<path class="st10" d="M479.62,192v0.5c-0.04,0-0.08,0-0.12,0c-7.65,0.01-15.26,0.25-22.83,0.71
				C464.21,192.42,471.87,192.01,479.62,192z"/>
			<path class="st10" d="M503.3,193.2c-7.85-0.47-15.75-0.71-23.68-0.7V192c0.13,0,0.25,0,0.38,0
				C487.87,192,495.64,192.41,503.3,193.2z"/>
			<path class="st10" d="M615.14,216.86l50.11-50.11c28.91,12.45,56.49,27.78,82.3,45.7L699.4,260.6
				C673.26,242.69,644.96,227.97,615.14,216.86z"/>
			<path class="st10" d="M832,128l-84.45,84.45c-25.81-17.92-53.39-33.25-82.3-45.7L768,64L832,128z"/>
		</g>
		<g class="st3">
		</g>
	</g>
	<g id="eraser" class="st0">
		<path class="st3" d="M620.63,139.63c-12.5-12.5-32.76-12.5-45.25,0L333.5,381.5L94.63,620.37c-12.5,12.5-12.5,32.76,0,45.25
			L336,907h202l160.5-160.5l241.87-241.87c12.5-12.5,12.5-32.76,0-45.25L620.63,139.63z M511.49,843H362.51l-200-200l216.25-216.25
			l274.49,274.49L511.49,843z"/>
	</g>
	<path id="pen" class="st0" d="M978.13,261.87l-219-219c-12.5-12.5-32.76-12.5-45.25,0L125.98,630.76c-6,6-9.37,14.14-9.37,22.63
		c0,0.7,0.03,1.4,0.08,2.09L70.99,912.91c-1.83,10.29,1.49,20.83,8.88,28.22c6.05,6.05,14.22,9.37,22.63,9.37
		c1.86,0,3.73-0.16,5.59-0.49l257.43-45.69c0.7,0.05,1.39,0.08,2.09,0.08c8.19,0,16.38-3.12,22.63-9.37l587.89-587.89
		c6-6,9.37-14.14,9.37-22.63S984.13,267.87,978.13,261.87z M623.08,224.18l173.75,173.74L367.61,827.14L193.86,653.39L623.08,224.18
		z M142.01,878.99l28.18-158.75l130.58,130.58L142.01,878.99z M842.08,352.67L668.33,178.92l68.17-68.17L910.25,284.5L842.08,352.67
		z"/>
	<path id="select" d="M548.94,957.32c-3.78,0-7.57-0.67-11.18-2.02c-7.95-2.96-14.4-8.97-17.93-16.69l-75.4-165.01l-174.65,79.8
		c-9.93,4.54-21.48,3.7-30.65-2.22s-14.69-16.1-14.65-27.01l2.68-725.62c0.05-12.48,7.35-23.8,18.7-28.99
		c11.35-5.19,24.69-3.3,34.16,4.84l550.33,472.93c8.28,7.11,12.36,17.95,10.83,28.76c-1.53,10.8-8.46,20.08-18.38,24.62
		l-174.65,79.8l75.4,165.01c7.34,16.07,0.27,35.06-15.81,42.4l-145.51,66.49C558.03,956.35,553.49,957.32,548.94,957.32z
		 M460.23,699.19c12.14,0,23.75,6.94,29.13,18.71l75.4,165.01l87.3-39.89l-75.4-165.01c-7.34-16.07-0.27-35.06,15.81-42.4
		l158.27-72.32L290.92,168.15l-2.24,606.26l158.27-72.32C451.26,700.13,455.78,699.19,460.23,699.19z"/>
</g>
</svg>
