<?xml version="1.0" encoding="utf-8"?>
<!-- Generator: Adobe Illustrator 23.0.0, SVG Export Plug-In . SVG Version: 6.00 Build 0)  -->
<svg version="1.1" id="图层_1" xmlns="http://www.w3.org/2000/svg" xmlns:xlink="http://www.w3.org/1999/xlink" x="0px" y="0px"
	 viewBox="0 0 1024 1024" style="enable-background:new 0 0 1024 1024;" xml:space="preserve">
<path d="M862.3,338c-57.4-57.4-133.8-89-215-89h-323V123.4c0-7.1-11.6-10.7-18.3-5.6L75.7,290.4c-4.1,3.1-4.2,8.1,0,11.3L306,476.1
	c6.7,5.1,18.4,1.5,18.4-5.6V345h323c114.7,0,208,93.3,208,208s-93.3,208-208,208h-130c-26.5,0-48,21.5-48,48s21.5,48,48,48h130
	c81.2,0,157.5-31.6,215-89s89-133.8,89-215S919.8,395.4,862.3,338z"/>
</svg>
