<?xml version="1.0" encoding="utf-8"?>
<!-- Generator: Adobe Illustrator 23.0.0, SVG Export Plug-In . SVG Version: 6.00 Build 0)  -->
<svg version="1.1" id="图层_1" xmlns="http://www.w3.org/2000/svg" xmlns:xlink="http://www.w3.org/1999/xlink" x="0px" y="0px"
	 viewBox="0 0 1024 1024" style="enable-background:new 0 0 1024 1024;" xml:space="preserve">
<path d="M978.1,261.9l-219-219c-12.5-12.5-32.8-12.5-45.3,0L126,630.8c-6,6-9.4,14.1-9.4,22.6c0,0.7,0,1.4,0.1,2.1L71,912.9
	c-1.8,10.3,1.5,20.8,8.9,28.2c6.1,6,14.2,9.4,22.6,9.4c1.9,0,3.7-0.2,5.6-0.5l257.4-45.7c0.7,0,1.4,0.1,2.1,0.1
	c8.2,0,16.4-3.1,22.6-9.4l587.9-587.9c6-6,9.4-14.1,9.4-22.6S984.1,267.9,978.1,261.9z M623.1,224.2l173.8,173.7L367.6,827.1
	L193.9,653.4L623.1,224.2z M142,879l28.2-158.8l130.6,130.6L142,879z M842.1,352.7L668.3,178.9l68.2-68.2l173.8,173.8L842.1,352.7z"
	/>
<path d="M341.4,273.7h-240c-22.1,0-40-14.3-40-32l0,0c0-17.7,17.9-32,40-32h240c22.1,0,40,14.3,40,32l0,0
	C381.4,259.4,363.5,273.7,341.4,273.7z"/>
</svg>
