<?xml version="1.0" encoding="utf-8"?>
<!-- Generator: Adobe Illustrator 23.0.0, SVG Export Plug-In . SVG Version: 6.00 Build 0)  -->
<svg version="1.1" id="图层_2" xmlns="http://www.w3.org/2000/svg" xmlns:xlink="http://www.w3.org/1999/xlink" x="0px" y="0px"
	 viewBox="0 0 1024 1024" style="enable-background:new 0 0 1024 1024;" xml:space="preserve">
<path d="M978.13,261.87l-219-219c-12.5-12.5-32.76-12.5-45.25,0L125.98,630.76c-6,6-9.37,14.14-9.37,22.63c0,0.7,0.03,1.4,0.08,2.09
	L70.99,912.91c-1.83,10.29,1.49,20.83,8.88,28.22c6.05,6.05,14.22,9.37,22.63,9.37c1.86,0,3.73-0.16,5.59-0.49l257.43-45.69
	c0.7,0.05,1.39,0.08,2.09,0.08c8.19,0,16.38-3.12,22.63-9.37l587.89-587.89c6-6,9.37-14.14,9.37-22.63S984.13,267.87,978.13,261.87z
	 M623.08,224.18l173.75,173.74L367.61,827.14L193.86,653.39L623.08,224.18z M142.01,878.99l28.18-158.75l130.58,130.58
	L142.01,878.99z M842.08,352.67L668.33,178.92l68.17-68.17L910.25,284.5L842.08,352.67z"/>
</svg>
