<?xml version="1.0" encoding="utf-8"?>
<!-- Generator: Adobe Illustrator 23.0.0, SVG Export Plug-In . SVG Version: 6.00 Build 0)  -->
<svg version="1.1" id="图层_2" xmlns="http://www.w3.org/2000/svg" xmlns:xlink="http://www.w3.org/1999/xlink" x="0px" y="0px"
	 viewBox="0 0 1024 1024" style="enable-background:new 0 0 1024 1024;" xml:space="preserve">
<path d="M950.84,97.32L950.84,97.32c-19.37-27.86-52.45-43.27-90.7-42.28c-41.53,1.07-79.87,21.17-105.2,55.14L614.97,297.93
	c-27.88,37.39-77.1,50.29-119.7,31.37l-75.8-33.31c-24.54-10.79-52.64-5.49-71.59,13.48L205.99,451.53L73.91,583.76
	C61.71,595.97,55,612.2,55,629.46c0,17.26,6.71,33.49,18.91,45.7l274.6,274.91c12.19,12.21,28.4,18.93,45.65,18.93
	c17.24,0,33.46-6.72,45.65-18.93l132.08-132.23l141.89-142.05c18.95-18.97,24.24-47.11,13.46-71.68l-33.22-75.77l-0.05-0.11
	c-18.9-42.65-6.01-91.93,31.34-119.84l188.65-140.97c29.83-22.29,49.51-55.9,53.99-92.21C971.6,145.61,965.69,118.68,950.84,97.32z
	 M452.42,846.07c-16.31-2.7-36-5.28-58.73-18.05c-41.36-23.23-10.09-65.64-55.48-106.03c-45.39-40.39-85.74-13.13-116-39.38
	c-25.18-21.85-16.84-62.59-42.98-112.89l72.4-72.49l137.3,137.45l137.3,137.45L452.42,846.07z M903.88,167.28
	c-2.34,18.92-12.74,36.54-28.54,48.34L686.69,356.6c-29.63,22.14-51.1,54.05-60.46,89.85c-9.36,35.79-6.27,74.11,8.7,107.93
	l33.19,75.7l-96.25,96.36l-274.6-274.91l96.25-96.36l75.61,33.22c33.78,14.99,72.07,18.09,107.82,8.72
	c35.76-9.37,67.64-30.87,89.75-60.53l139.97-187.74c13.22-17.73,33.83-28.64,55.13-29.19c9.51-0.24,26.82,1.32,36.05,14.6
	C903.39,142.2,905.53,153.94,903.88,167.28z"/>
</svg>
